<?xml version="1.0" standalone="no"?>
<!DOCTYPE svg PUBLIC "-//W3C//DTD SVG 20010904//EN"
 "http://www.w3.org/TR/2001/REC-SVG-20010904/DTD/svg10.dtd">
<svg version="1.0" xmlns="http://www.w3.org/2000/svg"
 width="1200.000000pt" height="1200.000000pt" viewBox="0 0 1200.000000 1200.000000"
 preserveAspectRatio="xMidYMid meet">

<g transform="translate(0.000000,1200.000000) scale(0.100000,-0.100000)"
fill="#000000" stroke="none">
<path d="M5410 6795 l0 -275 30 0 29 0 3 76 c3 65 6 79 24 91 20 13 26 8 98
-77 71 -82 81 -90 113 -90 l35 0 -46 55 c-25 30 -67 80 -93 111 l-48 57 89 83
90 84 -41 0 c-38 0 -46 -6 -132 -95 -51 -52 -93 -95 -94 -95 -1 0 -1 79 1 175
l4 175 -31 0 -31 0 0 -275z"/>
<path d="M8170 7055 c-26 -31 13 -82 44 -56 19 16 21 42 4 59 -16 16 -33 15
-48 -3z"/>
<path d="M4060 6781 l0 -261 113 0 c171 1 227 33 235 138 5 68 -17 103 -75
123 l-36 12 29 12 c63 27 88 91 61 157 -24 57 -61 71 -204 76 l-123 4 0 -261z
m203 200 c66 -3 94 -98 41 -140 -22 -17 -41 -21 -105 -21 l-79 0 0 78 c0 43 3
81 6 85 3 3 29 4 57 3 29 -2 64 -4 80 -5z m43 -236 c52 -34 54 -109 3 -147
-19 -15 -44 -20 -105 -21 l-79 -2 -3 84 c-2 46 -1 90 2 97 7 19 150 10 182
-11z"/>
<path d="M6312 6788 c-45 -139 -82 -256 -82 -260 0 -5 13 -8 29 -8 29 0 31 4
53 78 l24 77 91 3 91 3 27 -81 c25 -76 28 -80 56 -80 16 0 29 3 29 8 0 4 -37
120 -83 257 l-84 250 -34 3 -35 3 -82 -253z m154 59 l32 -102 -65 -3 c-36 -2
-67 -1 -69 0 -2 2 11 52 29 110 18 59 34 104 36 102 3 -3 19 -51 37 -107z"/>
<path d="M8570 6960 c-11 -46 -14 -50 -48 -56 -55 -9 -62 -12 -62 -29 0 -11
12 -15 50 -15 l50 0 0 -139 c0 -134 1 -141 25 -169 29 -34 81 -48 145 -37 33
6 40 11 40 30 0 23 -2 24 -50 18 -37 -4 -56 -2 -75 11 -25 16 -25 18 -25 151
l0 135 75 0 c73 0 75 1 75 25 0 24 -2 25 -75 25 l-75 0 0 50 c0 42 -3 50 -19
50 -15 0 -22 -12 -31 -50z"/>
<path d="M10330 6960 c-11 -46 -14 -50 -48 -56 -55 -9 -62 -12 -62 -29 0 -11
12 -15 50 -15 l50 0 0 -139 c0 -134 1 -141 25 -169 29 -34 81 -48 145 -37 33
6 40 11 40 30 0 23 -2 24 -50 18 -37 -4 -56 -2 -75 11 -25 16 -25 18 -25 151
l0 135 75 0 c73 0 75 1 75 25 0 24 -2 25 -75 25 l-75 0 0 50 c0 42 -3 50 -19
50 -15 0 -22 -12 -31 -50z"/>
<path d="M4594 6901 c-50 -23 -80 -63 -94 -127 -33 -146 61 -278 187 -260 94
13 145 70 151 172 6 90 -4 130 -45 174 -53 60 -125 75 -199 41z m127 -47 c17
-8 37 -30 45 -49 18 -44 18 -136 0 -180 -32 -76 -137 -85 -183 -16 -31 46 -33
160 -3 209 31 51 85 65 141 36z"/>
<path d="M5034 6901 c-50 -23 -80 -63 -94 -127 -33 -146 61 -278 187 -260 94
13 145 70 151 172 6 90 -4 130 -45 174 -53 60 -125 75 -199 41z m127 -47 c17
-8 37 -30 45 -49 18 -44 18 -136 0 -180 -32 -76 -137 -85 -183 -16 -31 46 -33
160 -3 209 31 51 85 65 141 36z"/>
<path d="M6822 6904 c-19 -10 -36 -23 -39 -31 -7 -18 -23 -6 -23 18 0 14 -7
19 -25 19 l-25 0 0 -285 0 -285 30 0 30 0 0 111 0 110 31 -22 c72 -51 165 -29
209 51 21 38 25 58 24 125 0 89 -24 151 -69 181 -37 24 -104 28 -143 8z m92
-45 c14 -7 32 -26 41 -44 20 -44 20 -157 -1 -200 -28 -60 -107 -70 -154 -20
-32 34 -41 164 -16 217 25 53 76 71 130 47z"/>
<path d="M7262 6904 c-19 -10 -36 -23 -39 -31 -7 -18 -23 -6 -23 18 0 14 -7
19 -25 19 l-25 0 0 -285 0 -285 30 0 30 0 0 111 0 110 31 -22 c72 -51 165 -29
209 51 21 38 25 58 24 125 0 89 -24 151 -69 181 -37 24 -104 28 -143 8z m92
-45 c14 -7 32 -26 41 -44 20 -44 20 -157 -1 -200 -28 -60 -107 -70 -154 -20
-32 34 -41 164 -16 217 25 53 76 71 130 47z"/>
<path d="M7674 6901 c-50 -23 -80 -63 -94 -127 -33 -146 61 -278 187 -260 94
13 145 70 151 172 6 90 -4 130 -45 174 -53 60 -125 75 -199 41z m127 -47 c17
-8 37 -30 45 -49 18 -44 18 -136 0 -180 -32 -76 -137 -85 -183 -16 -31 46 -33
160 -3 209 31 51 85 65 141 36z"/>
<path d="M8971 6901 c-12 -12 -21 -25 -21 -31 0 -5 -4 -10 -10 -10 -5 0 -10
11 -10 25 0 20 -5 25 -23 25 l-24 0 0 -195 0 -195 29 0 28 0 0 145 c0 87 5
154 12 169 16 37 48 44 70 16 16 -19 18 -42 18 -176 l0 -154 30 0 30 0 0 145
c0 87 5 154 12 169 16 37 48 44 70 16 16 -19 18 -42 18 -176 l0 -154 25 0 25
0 0 165 c0 187 -8 219 -59 230 -34 7 -63 -5 -87 -38 -9 -12 -18 -17 -20 -11
-20 50 -80 68 -113 35z"/>
<path d="M9454 6910 c-97 -30 -146 -192 -91 -300 41 -83 126 -114 235 -89 51
13 57 17 60 42 4 31 3 31 -34 17 -37 -14 -137 -15 -163 -1 -24 13 -45 51 -56
99 l-7 32 141 0 141 0 0 38 c-1 51 -31 114 -68 141 -36 25 -112 35 -158 21z
m133 -75 c13 -14 23 -37 23 -51 0 -24 -1 -24 -100 -24 -94 0 -100 1 -100 21 0
81 122 118 177 54z"/>
<path d="M9915 6906 c-17 -7 -36 -20 -44 -29 -16 -20 -31 -13 -31 14 0 14 -7
19 -25 19 l-25 0 0 -195 0 -195 30 0 30 0 0 125 c0 143 12 185 59 209 42 22
75 20 108 -8 l28 -24 3 -151 3 -151 30 0 29 0 0 148 c0 120 -3 153 -18 182
-30 60 -109 86 -177 56z"/>
<path d="M8070 6891 c0 -16 9 -21 45 -27 25 -3 45 -10 46 -15 0 -5 1 -65 1
-134 0 -69 -1 -129 -1 -134 -1 -5 -28 -12 -61 -16 -50 -6 -60 -10 -60 -26 0
-18 9 -19 155 -19 147 0 155 1 155 20 0 16 -9 20 -60 26 l-60 7 0 168 0 169
-80 0 c-72 0 -80 -2 -80 -19z"/>
<path d="M1200 5895 l0 -235 1200 0 1200 0 0 235 0 235 -1200 0 -1200 0 0
-235z"/>
<path d="M7274 5841 c-17 -4 -36 -11 -43 -16 -19 -11 -41 -70 -41 -108 0 -31
-4 -35 -31 -41 -17 -3 -42 -6 -55 -6 -17 0 -24 -6 -24 -20 0 -18 7 -20 55 -20
l55 0 0 -170 0 -170 30 0 30 0 0 170 0 170 65 0 c63 0 65 1 65 25 0 24 -2 25
-65 25 l-65 0 0 45 c0 59 28 80 99 73 45 -5 50 -3 54 19 3 16 0 23 -12 23 -9
0 -32 2 -51 5 -19 2 -49 0 -66 -4z"/>
<path d="M4642 5828 c-21 -21 -8 -68 19 -68 10 0 39 30 39 40 0 10 -29 40 -39
40 -4 0 -12 -5 -19 -12z"/>
<path d="M6792 5828 c-21 -21 -8 -68 19 -68 10 0 39 30 39 40 0 10 -29 40 -39
40 -4 0 -12 -5 -19 -12z"/>
<path d="M4100 5545 l0 -255 140 0 140 0 0 25 c0 24 0 24 -112 27 l-113 3 -3
228 -2 227 -25 0 -25 0 0 -255z"/>
<path d="M6250 5545 l0 -255 140 0 140 0 0 25 c0 24 0 24 -112 27 l-113 3 -3
228 -2 227 -25 0 -25 0 0 -255z"/>
<path d="M8400 5545 l0 -255 140 0 140 0 0 25 c0 24 0 24 -112 27 l-113 3 -3
228 -2 227 -25 0 -25 0 0 -255z"/>
<path d="M5465 5675 c-81 -29 -122 -109 -112 -218 10 -112 78 -172 192 -170
80 1 115 16 115 47 l0 24 -47 -15 c-58 -18 -127 -12 -155 13 -24 22 -48 74
-48 104 0 19 6 20 136 20 l136 0 -4 55 c-10 114 -107 178 -213 140z m119 -57
c15 -13 29 -38 32 -55 l7 -33 -108 0 -107 0 6 28 c17 73 116 107 170 60z"/>
<path d="M7615 5675 c-81 -29 -122 -109 -112 -218 10 -112 78 -172 192 -170
80 1 115 16 115 47 l0 24 -47 -15 c-58 -18 -127 -12 -155 13 -24 22 -48 74
-48 104 0 19 6 20 136 20 l136 0 -4 55 c-10 114 -107 178 -213 140z m119 -57
c15 -13 29 -38 32 -55 l7 -33 -108 0 -107 0 6 28 c17 73 116 107 170 60z"/>
<path d="M8897 5676 c-49 -18 -64 -32 -89 -80 -29 -57 -29 -158 0 -217 43 -87
150 -121 232 -73 85 49 114 200 57 297 -42 72 -123 101 -200 73z m112 -51 c37
-19 56 -66 56 -140 0 -74 -19 -121 -56 -140 -56 -29 -114 -14 -144 38 -23 39
-26 147 -6 195 24 56 92 78 150 47z"/>
<path d="M9356 5675 c-22 -7 -43 -21 -48 -29 -13 -24 -28 -19 -28 9 0 20 -5
25 -25 25 l-25 0 0 -195 0 -195 29 0 30 0 3 146 3 146 33 29 c41 37 89 39 129
5 28 -24 28 -24 31 -175 l4 -151 24 0 24 0 0 151 c0 199 -13 227 -112 243 -18
3 -51 -1 -72 -9z"/>
<path d="M9761 5680 c-52 -13 -83 -50 -88 -107 -5 -45 -2 -53 27 -86 l31 -36
-20 -23 c-25 -26 -27 -55 -6 -85 14 -19 13 -22 -14 -33 -71 -29 -64 -140 11
-171 49 -20 166 -16 214 7 52 25 81 81 68 132 -13 51 -47 71 -129 78 -100 8
-115 12 -115 32 0 34 24 53 72 57 106 8 152 70 124 168 -8 25 -6 27 23 27 24
0 31 4 31 20 0 18 -7 20 -77 20 -43 0 -87 2 -98 4 -11 3 -35 1 -54 -4z m112
-61 c26 -32 22 -85 -9 -116 -22 -22 -32 -25 -67 -20 -50 7 -67 28 -67 83 0 34
5 47 27 64 34 27 89 22 116 -11z m31 -319 c22 -8 26 -16 26 -50 0 -55 -39 -80
-128 -80 -53 0 -67 4 -87 25 -14 13 -25 29 -25 34 0 26 22 62 42 71 31 12 141
12 172 0z"/>
<path d="M4540 5660 c0 -15 7 -20 29 -20 61 0 61 1 61 -155 0 -160 3 -155 -82
-155 -31 0 -38 -4 -38 -20 0 -19 7 -20 150 -20 143 0 150 1 150 20 0 16 -7 20
-37 20 -87 0 -83 -9 -83 181 l0 169 -75 0 c-68 0 -75 -2 -75 -20z"/>
<path d="M4974 5488 l73 -193 39 0 38 0 53 140 c29 77 62 164 73 193 l20 53
-31 -3 c-30 -3 -33 -7 -75 -123 -24 -66 -51 -145 -60 -175 l-16 -54 -62 174
c-62 173 -63 175 -93 178 l-31 3 72 -193z"/>
<path d="M6690 5660 c0 -15 7 -20 29 -20 61 0 61 1 61 -155 0 -160 3 -155 -82
-155 -31 0 -38 -4 -38 -20 0 -19 7 -20 150 -20 143 0 150 1 150 20 0 16 -7 20
-37 20 -87 0 -83 -9 -83 181 l0 169 -75 0 c-68 0 -75 -2 -75 -20z"/>
<path d="M1200 5255 l0 -235 1200 0 1200 0 0 235 0 235 -1200 0 -1200 0 0
-235z"/>
</g>
</svg>
